<svg id="Capa_1" data-name="Capa 1" xmlns="http://www.w3.org/2000/svg" viewBox="0 0 41.55 24"><defs><style>.cls-1{fill:#0052d6;}.cls-2{fill:none;}</style></defs><title>dependancy-icon</title><rect class="cls-1" x="16.2" y="2.33" width="9.22" height="4.77"/><polygon points="0 16.22 0 17.95 28.08 17.95 28.08 22.27 0 22.27 0 24 29.81 24 29.81 16.22 0 16.22"/><polygon points="16.2 0.76 16.23 2.49 35.67 2.19 35.74 6.51 16.3 6.81 16.34 8.54 37.5 8.21 37.37 0.43 16.2 0.76"/><rect class="cls-1" y="17.95" width="18.69" height="4.32"/><line class="cls-2" x1="41.4" y1="2.18" x2="41.55" y2="2.33"/><polygon points="37.36 20.54 29.23 20.54 29.23 19.68 36.49 19.68 36.49 6.79 37.36 6.79 37.36 20.54"/><g id="reply"><path class="cls-1" d="M120.29,103.61c1.78-3,4.5-4.53,8.54-4.86l.27,3.31,5.19-6.13-6.13-5.18.27,3.23C122.84,95.26,120.76,99.5,120.29,103.61Z" transform="translate(-120.29 -90.75)"/></g></svg>