<svg version="1.2" preserveAspectRatio="none" viewBox="0 -5.5 55 55" id="Layer_1" xmlns="http://www.w3.org/2000/svg" xmlns:xlink="http://www.w3.org/1999/xlink" x="0px" y="0px" style="enable-background:new 0 -5.5 55 55; height: 50px; width: 50px;" xml:space="preserve">
	<g>
		<path d="M53.4,8.5c-1-1-2-1.4-3.4-1.4H30c-1.3,0-4.1-1.2-4.9-2.1l-1.5-1.7C22,1.4,18.9,0,16.5,0h-11C2.5,0,0,2.4,0,5.4l0,33.2    C0,41.5,2,44,5,44h45c3,0,5-2.1,5-5V12C55,10.6,54.5,9.5,53.4,8.5z M53,39c0,1.8-1.1,3-3,3H5c-1.9,0-3-1.6-3-3.4L2,5.4    C2,3.5,3.6,2,5.5,2h11c1.9,0,4.4,1.1,5.6,2.5l1.5,1.7C24.8,7.6,28.2,9,30,9h20c0.9,0,1.4,0.2,2,0.9c0.6,0.6,1,1.2,1,2.1V39z     M48,27h-9c-0.6,0-1,0.5-1,1c0,0.6,0.4,1,1,1h9c0.6,0,1-0.5,1-1C49,27.5,48.6,27,48,27z M48,31H34c-0.6,0-1,0.5-1,1    c0,0.6,0.4,1,1,1h14c0.6,0,1-0.5,1-1C49,31.4,48.6,31,48,31z M48,35H34c-0.6,0-1,0.4-1,1c0,0.5,0.4,1,1,1h14c0.6,0,1-0.4,1-1    C49,35.5,48.6,35,48,35z" style="fill: rgb(15, 28, 44);"></path>
	</g>
</svg>